<svg id="Слой_1" data-name="Слой 1" xmlns="http://www.w3.org/2000/svg" viewBox="0 0 48 48"><defs><style>.cls-1{fill:none;}.cls-2{fill:#fff;}</style></defs><rect class="cls-1" width="48" height="48"/><path class="cls-2" d="M37.78,34.54,27.6,21.43V14.09l2-2.55A1.19,1.19,0,0,0,28.7,9.6H19.3a1.19,1.19,0,0,0-.94,1.94l2,2.55v7.32L10.22,34.51A2.4,2.4,0,0,0,12.1,38.4H35.88A2.38,2.38,0,0,0,37.78,34.54Z"/><rect class="cls-2" x="37.42" y="13.13" width="1.75" height="10" rx="0.87" transform="translate(20.17 56.42) rotate(-90)"/><rect class="cls-2" x="37.42" y="13.13" width="1.75" height="10" rx="0.87" transform="translate(76.6 36.25) rotate(-180)"/></svg>