<?xml version="1.0" standalone="no"?>
<!DOCTYPE svg PUBLIC "-//W3C//DTD SVG 20010904//EN"
 "http://www.w3.org/TR/2001/REC-SVG-20010904/DTD/svg10.dtd">
<svg version="1.0" xmlns="http://www.w3.org/2000/svg"
 width="700.000000pt" height="700.000000pt" viewBox="0 0 700.000000 700.000000"
 preserveAspectRatio="xMidYMid meet">
<metadata>
Created by potrace 1.14, written by Peter Selinger 2001-2017
</metadata>
<g transform="translate(0.000000,700.000000) scale(0.100000,-0.100000)"
fill="#000000" stroke="none">
<path d="M0 5316 l0 -1682 1680 0 c1518 0 1680 1 1684 15 2 9 3 765 2 1681
l-1 1665 -1682 1 -1683 2 0 -1682z"/>
<path d="M3630 6821 c0 -134 3 -180 13 -183 6 -2 56 -3 110 -2 65 1 97 -2 98
-10 1 -6 2 -347 3 -758 0 -410 5 -750 9 -755 5 -4 89 -8 187 -8 151 0 179 2
182 15 2 8 3 351 3 763 -1 508 3 747 10 749 5 0 51 2 100 3 50 2 96 3 103 4 9
1 12 44 12 181 l0 180 -415 0 -415 0 0 -179z"/>
<path d="M4565 6055 c0 -520 2 -945 5 -946 3 -1 87 -2 188 -3 l182 -1 1 35 c0
19 0 211 1 427 0 286 3 393 11 395 7 2 185 4 397 3 l385 0 5 -430 5 -430 185
0 185 0 0 948 1 947 -188 0 -188 0 0 -338 0 -339 -397 1 -398 1 -2 315 c-1
173 -2 325 -2 338 l-1 22 -188 0 -187 0 0 -945z"/>
<path d="M5146 6967 c21 -100 99 -167 197 -169 95 -1 188 76 198 167 l4 30
-203 2 -203 2 7 -32z"/>
<path d="M6219 6993 c-5 -49 0 -1875 5 -1880 4 -5 180 -8 392 -8 l384 0 -2
185 -3 184 -195 1 -195 0 -1 218 -1 217 179 0 178 0 0 178 0 177 -177 0 -178
0 -2 165 c-1 91 0 174 2 185 4 19 12 20 187 20 l183 0 0 183 0 182 -377 0
c-208 0 -378 -3 -379 -7z"/>
<path d="M6637 4974 c-1 -1 -23 -4 -49 -7 -55 -7 -117 -37 -154 -74 -95 -99
-113 -320 -38 -451 15 -26 86 -105 159 -177 78 -77 142 -148 155 -174 24 -49
34 -147 18 -191 -17 -52 -88 -47 -108 6 -6 14 -10 70 -10 125 l0 99 -129 0
c-148 0 -138 8 -135 -109 5 -150 19 -218 60 -281 48 -76 121 -111 245 -118
160 -9 245 31 298 141 61 126 68 329 14 445 -25 57 -76 117 -204 242 -64 63
-125 127 -134 142 -40 65 -22 138 34 138 43 0 61 -28 61 -93 l0 -57 136 0 135
0 -2 53 c-8 158 -66 264 -167 309 -34 16 -176 40 -185 32z"/>
<path d="M3703 4962 l-53 -3 0 -665 0 -666 228 4 c211 3 230 5 268 25 113 60
156 179 150 418 -4 176 -29 240 -110 282 l-30 15 31 13 c68 29 101 115 98 259
-4 183 -49 270 -159 301 -49 14 -300 24 -423 17z m302 -222 c13 -11 16 -34 14
-126 -2 -135 -10 -154 -70 -154 l-39 0 0 149 0 150 40 -3 c22 -2 47 -9 55 -16z
m4 -504 c19 -12 29 -78 30 -189 1 -148 -12 -171 -98 -182 l-31 -4 -1 62 c-2
205 2 322 12 328 11 7 68 -3 88 -15z"/>
<path d="M4543 4962 c-61 -3 -63 -4 -64 -30 0 -15 -2 -34 -3 -42 -2 -8 -6 -46
-9 -85 -4 -38 -11 -113 -16 -165 -6 -52 -13 -126 -16 -165 -4 -38 -8 -81 -10
-95 -2 -14 -7 -61 -10 -105 -3 -44 -8 -96 -10 -115 -4 -30 -10 -92 -20 -200
-1 -14 -5 -59 -9 -100 -8 -89 -16 -165 -22 -202 l-4 -28 130 0 c71 0 130 3
131 8 1 4 3 30 5 57 2 28 6 68 8 90 2 22 5 45 5 51 1 7 30 11 81 10 l80 -1 1
-30 c0 -16 2 -41 5 -55 2 -14 6 -45 8 -70 2 -25 5 -48 5 -52 1 -5 58 -8 127
-8 l125 0 -5 48 c-3 26 -8 74 -11 107 -3 33 -7 76 -9 95 -3 19 -8 71 -11 115
-3 44 -8 91 -10 105 -2 14 -6 61 -10 105 -3 44 -8 91 -10 105 -2 14 -6 61 -10
105 -3 44 -8 94 -10 110 -2 17 -7 66 -10 109 -4 43 -8 86 -10 95 -1 9 -6 55
-10 102 -8 105 -10 117 -17 124 -6 7 -288 12 -385 7z m172 -282 c9 -89 14
-150 20 -235 4 -44 8 -91 10 -105 3 -14 7 -67 10 -118 3 -51 8 -108 11 -127 4
-29 2 -34 -18 -37 -13 -2 -40 -1 -61 1 l-39 3 7 97 c4 53 8 112 10 131 2 19 6
76 9 125 4 50 9 119 12 155 6 63 10 115 13 154 2 34 10 12 16 -44z"/>
<path d="M5183 4962 l-43 -3 0 -665 0 -664 272 2 271 3 -1 100 c0 55 -1 105
-1 111 -1 8 -44 11 -133 11 l-133 0 -3 551 c-1 304 -6 552 -10 552 -51 3 -187
4 -219 2z"/>
<path d="M5790 4962 l-35 -3 2 -657 c1 -361 2 -660 2 -664 1 -5 122 -8 270 -8
l270 0 -2 113 -2 112 -126 1 c-69 0 -130 3 -135 7 -6 3 -9 204 -9 534 1 290
-2 537 -5 547 -6 17 -17 19 -101 20 -52 1 -110 0 -129 -2z"/>
<path d="M4 3361 c-2 -2 -4 -760 -4 -1683 l0 -1678 1683 2 1682 3 0 1673 c1
1148 -2 1676 -10 1680 -11 7 -3344 10 -3351 3z m1886 -487 c444 -79 805 -391
944 -817 98 -299 73 -631 -67 -912 -168 -337 -471 -570 -847 -651 -85 -18
-312 -27 -380 -14 -25 5 -63 11 -86 14 -22 4 -72 16 -110 27 -38 11 -78 23
-89 27 -38 11 -180 86 -245 129 -277 184 -470 485 -526 822 -12 69 -10 302 3
376 60 345 245 629 536 822 248 163 572 230 867 177z"/>
<path d="M3637 3355 c-2 -5 -3 -761 -3 -1680 l1 -1670 1683 -3 1682 -2 -2
1682 -3 1683 -228 0 c-126 0 -230 -2 -232 -6 -2 -3 -6 -40 -10 -84 -21 -287
-143 -553 -350 -761 -125 -126 -248 -209 -403 -272 -53 -21 -188 -62 -227 -67
-11 -2 -45 -7 -75 -11 -92 -14 -278 -8 -375 11 -421 83 -762 368 -910 762 -47
122 -71 247 -79 406 -1 22 -3 22 -233 22 -149 0 -234 -3 -236 -10z"/>
</g>
</svg>
