<svg id="Слой_1" data-name="Слой 1" xmlns="http://www.w3.org/2000/svg" viewBox="0 0 1000 1000"><defs><style>.cls-1{fill:#1f1f1f;}.cls-2{fill:none;}</style></defs><rect class="cls-1" x="627" y="626.07" width="118.72" height="118.72"/><path class="cls-1" d="M857.31,754.28a42.74,42.74,0,1,1-85.48,0H755.21V873H873.93V754.28Z"/><path class="cls-1" d="M627,754.28V873H745.72V754.28Zm59.36,102.1a42.74,42.74,0,1,1,42.74-42.74A42.73,42.73,0,0,1,686.36,856.38Z"/><path class="cls-1" d="M808.4,626a7.13,7.13,0,0,0,14.25,0"/><path class="cls-1" d="M773.41,718.78a5.67,5.67,0,0,0,3.62-2.7,10.67,10.67,0,0,0,1.19-5.36v-2.06c0-3.82-.78-6.57-2.34-8.23s-4-2.5-7.46-2.5H755.69v47h12.73a9.58,9.58,0,0,0,6.38-1.9,9.85,9.85,0,0,0,3.1-5.31,33.66,33.66,0,0,0,.85-8,21,21,0,0,0-1.08-7.19A5.73,5.73,0,0,0,773.41,718.78Zm-8.54-13.59h2c1.34,0,2,.76,2,2.27v4.73a7,7,0,0,1-.38,2.42,1.59,1.59,0,0,1-1.68,1h-1.92Zm4.59,28c0,2.32-1.22,3.47-3.66,3.47a9.07,9.07,0,0,1-.93,0V723h1.73a2.31,2.31,0,0,1,2.26,1.16,6.94,6.94,0,0,1,.6,3.16Z"/><path class="cls-1" d="M785.1,697.93l-4.54,47h9.13l.59-7.58h5.66l.67,7.58h8.88l-4.45-47Zm5.85,31.9,1.79-23.89h.42l2.06,23.89Z"/><polygon class="cls-1" points="817.77 697.93 808.38 697.93 808.38 744.91 827.43 744.91 827.43 736.9 817.77 736.9 817.77 697.93"/><polygon class="cls-1" points="839.5 697.93 830.1 697.93 830.1 744.91 849.16 744.91 849.16 736.9 839.5 736.9 839.5 697.93"/><path class="cls-1" d="M873.1,725.65a14,14,0,0,0-2.19-4,29.63,29.63,0,0,0-3-3.27l-5.41-5.21a9.21,9.21,0,0,1-2.11-2.64,5,5,0,0,1-.54-2.13,2.5,2.5,0,0,1,.52-1.62,2.39,2.39,0,0,1,3.13-.09,2,2,0,0,1,.54,1.49v3.23h9.56q0-7-2.71-10.46t-9.17-3.44q-5.28,0-8.07,3.14c-1.86,2.1-2.79,5.16-2.79,9.16a13.68,13.68,0,0,0,4.72,10.2l4.22,4a29.79,29.79,0,0,1,2.92,3.08,7.91,7.91,0,0,1,1.48,2.78,12.79,12.79,0,0,1,.43,3.61,4.63,4.63,0,0,1-.49,2.46,2,2,0,0,1-1.78.75,1.79,1.79,0,0,1-1.72-.92,5.48,5.48,0,0,1-.49-2.55v-5.87h-9.29v4.59q0,7,2.84,10.19t9.28,3.21q6.06,0,8.5-3.75t2.44-10.37A16.47,16.47,0,0,0,873.1,725.65Z"/><polygon class="cls-1" points="755.06 638.85 763 638.85 763 692.86 776.37 692.86 776.37 638.85 784.31 638.85 784.31 626.01 755.06 626.01 755.06 638.85"/><polygon class="cls-1" points="829.48 626.01 829.48 649.9 826.32 649.9 804.48 649.9 801.33 649.9 801.33 626.01 788.03 626.01 788.03 692.86 801.33 692.86 801.33 662.55 804.48 662.55 826.32 662.55 829.48 662.55 829.48 692.86 842.77 692.86 842.77 626.01 829.48 626.01"/><polygon class="cls-1" points="859.92 679.83 859.92 664.52 872.53 664.52 872.53 651.95 859.92 651.95 859.92 638.92 873.06 638.92 873.06 626.01 846.32 626.01 846.32 692.86 873.93 692.86 873.93 679.83 859.92 679.83"/><rect class="cls-2" width="1000" height="1000"/><rect class="cls-2" x="500" y="500" width="500" height="500"/><rect class="cls-1" x="127" y="127.07" width="118.72" height="118.72"/><path class="cls-1" d="M357.31,255.28a42.74,42.74,0,0,1-85.48,0H255.21V374H373.93V255.28Z"/><path class="cls-1" d="M127,255.28V374H245.72V255.28Zm59.36,102.1a42.74,42.74,0,1,1,42.74-42.74A42.73,42.73,0,0,1,186.36,357.38Z"/><path class="cls-1" d="M308.4,127a7.13,7.13,0,0,0,14.25,0"/><path class="cls-1" d="M273.41,219.78a5.67,5.67,0,0,0,3.62-2.7,10.67,10.67,0,0,0,1.19-5.36v-2.06c0-3.82-.78-6.57-2.34-8.23s-4-2.5-7.46-2.5H255.69v47h12.73a9.58,9.58,0,0,0,6.38-1.9,9.85,9.85,0,0,0,3.1-5.31,33.66,33.66,0,0,0,.85-8,21,21,0,0,0-1.08-7.19A5.73,5.73,0,0,0,273.41,219.78Zm-8.54-13.59h2c1.34,0,2,.76,2,2.27v4.73a7,7,0,0,1-.38,2.42,1.59,1.59,0,0,1-1.68,1h-1.92Zm4.59,28c0,2.32-1.22,3.47-3.66,3.47a9.07,9.07,0,0,1-.93,0V224h1.73a2.31,2.31,0,0,1,2.26,1.16,6.94,6.94,0,0,1,.6,3.16Z"/><path class="cls-1" d="M285.1,198.93l-4.54,47h9.13l.59-7.58h5.66l.67,7.58h8.88l-4.45-47Zm5.85,31.9,1.79-23.89h.42l2.06,23.89Z"/><polygon class="cls-1" points="317.77 198.93 308.38 198.93 308.38 245.91 327.43 245.91 327.43 237.9 317.77 237.9 317.77 198.93"/><polygon class="cls-1" points="339.5 198.93 330.1 198.93 330.1 245.91 349.16 245.91 349.16 237.9 339.5 237.9 339.5 198.93"/><path class="cls-1" d="M373.1,226.65a14,14,0,0,0-2.19-4,29.63,29.63,0,0,0-3-3.27l-5.41-5.21a9.21,9.21,0,0,1-2.11-2.64,5,5,0,0,1-.54-2.13,2.5,2.5,0,0,1,.52-1.62,2.39,2.39,0,0,1,3.13-.09,2,2,0,0,1,.54,1.49v3.23h9.56q0-7-2.71-10.46t-9.17-3.44q-5.28,0-8.07,3.14c-1.86,2.1-2.79,5.16-2.79,9.16a13.68,13.68,0,0,0,4.72,10.2l4.22,4a29.79,29.79,0,0,1,2.92,3.08,7.91,7.91,0,0,1,1.48,2.78,12.79,12.79,0,0,1,.43,3.61,4.63,4.63,0,0,1-.49,2.46,2,2,0,0,1-1.78.75,1.79,1.79,0,0,1-1.72-.92,5.48,5.48,0,0,1-.49-2.55v-5.87h-9.29v4.59q0,7,2.84,10.19t9.28,3.21q6.06,0,8.5-3.75t2.44-10.37A16.47,16.47,0,0,0,373.1,226.65Z"/><polygon class="cls-1" points="255.06 139.85 263 139.85 263 193.86 276.37 193.86 276.37 139.85 284.31 139.85 284.31 127.01 255.06 127.01 255.06 139.85"/><polygon class="cls-1" points="329.48 127.01 329.48 150.9 326.32 150.9 304.48 150.9 301.33 150.9 301.33 127.01 288.03 127.01 288.03 193.86 301.33 193.86 301.33 163.55 304.48 163.55 326.32 163.55 329.48 163.55 329.48 193.86 342.77 193.86 342.77 127.01 329.48 127.01"/><polygon class="cls-1" points="359.92 180.83 359.92 165.52 372.53 165.52 372.53 152.95 359.92 152.95 359.92 139.92 373.06 139.92 373.06 127.01 346.32 127.01 346.32 193.86 373.94 193.86 373.94 180.83 359.92 180.83"/><rect class="cls-2" y="1" width="500" height="500"/></svg>