<svg id="Слой_1" data-name="Слой 1" xmlns="http://www.w3.org/2000/svg" viewBox="0 0 1000 631"><defs><style>.cls-1{fill:#c52b23;}.cls-2{fill:none;}</style></defs><rect class="cls-1" x="239.99" y="55.56" width="250" height="250"/><path class="cls-1" d="M725,510.06a90,90,0,0,1-180,0H510v250H760v-250Z" transform="translate(0 -184.5)"/><path class="cls-1" d="M240,510.06v250H490v-250Zm125,215a90,90,0,1,1,90-90A90,90,0,0,1,365,725.06Z" transform="translate(0 -184.5)"/><path class="cls-1" d="M622,240a15,15,0,0,0,30,0" transform="translate(0 -184.5)"/><path class="cls-1" d="M548.32,435.29a11.92,11.92,0,0,0,7.61-5.67q2.51-4.33,2.5-11.3V414q0-12.09-4.91-17.34t-15.71-5.25H511v98.92h26.82q8.7,0,13.43-4a20.71,20.71,0,0,0,6.52-11.19,69.63,69.63,0,0,0,1.8-16.8,44.18,44.18,0,0,0-2.28-15.15A12.12,12.12,0,0,0,548.32,435.29Zm-18-28.61h4.16c2.81,0,4.21,1.6,4.21,4.78v10a15,15,0,0,1-.78,5.12q-.79,2.13-3.54,2.13h-4ZM540,465.59q0,7.31-7.7,7.31c-.49,0-1.15,0-2-.12V444.12H534q3.49,0,4.75,2.44a14.54,14.54,0,0,1,1.27,6.66Z" transform="translate(0 -184.5)"/><path class="cls-1" d="M572.94,391.4l-9.56,98.92H582.6l1.24-16h11.92l1.4,16h18.72l-9.39-98.92Zm12.3,67.16,3.77-50.3h.9l4.33,50.3Z" transform="translate(0 -184.5)"/><polygon class="cls-1" points="641.73 206.9 621.95 206.9 621.95 305.82 662.08 305.82 662.08 288.96 641.73 288.96 641.73 206.9"/><polygon class="cls-1" points="687.49 206.9 667.7 206.9 667.7 305.82 707.83 305.82 707.83 288.96 687.49 288.96 687.49 206.9"/><path class="cls-1" d="M758.25,449.77a29.71,29.71,0,0,0-4.61-8.43,65.75,65.75,0,0,0-6.29-6.89l-11.41-11a20,20,0,0,1-4.44-5.56,10.77,10.77,0,0,1-1.13-4.5,5.14,5.14,0,0,1,1.1-3.4,4.36,4.36,0,0,1,7.73,3v6.8h20.12q0-14.77-5.71-22t-19.3-7.25q-11.13,0-17,6.63t-5.87,19.28q0,12.09,10,21.47l8.88,8.43a67.31,67.31,0,0,1,6.16,6.49,17.13,17.13,0,0,1,3.11,5.85,27.4,27.4,0,0,1,.9,7.61c0,2.4-.34,4.13-1,5.18s-1.93,1.57-3.73,1.57a3.76,3.76,0,0,1-3.63-1.94,11.51,11.51,0,0,1-1-5.37V453.34H711.43V463q0,14.73,6,21.48T737,491.22q12.76,0,17.9-7.9T760,461.49A34.6,34.6,0,0,0,758.25,449.77Z" transform="translate(0 -184.5)"/><polygon class="cls-1" points="509.68 82.47 526.4 82.47 526.4 196.21 554.55 196.21 554.55 82.47 571.27 82.47 571.27 55.44 509.68 55.44 509.68 82.47"/><polygon class="cls-1" points="666.38 55.44 666.38 105.75 659.74 105.75 613.74 105.75 607.1 105.75 607.1 55.44 579.11 55.44 579.11 196.21 607.1 196.21 607.1 132.38 613.74 132.38 659.74 132.38 666.38 132.38 666.38 196.21 694.38 196.21 694.38 55.44 666.38 55.44"/><polygon class="cls-1" points="730.49 168.78 730.49 136.54 757.05 136.54 757.05 110.07 730.49 110.07 730.49 82.63 758.17 82.63 758.17 55.44 701.86 55.44 701.86 196.21 760.01 196.21 760.01 168.78 730.49 168.78"/><rect class="cls-2" width="1000" height="631"/></svg>